/* XPM */
static char *b5b4621c081f455eff1cc1e0c0031fcbLiqZyR3r6uI91Nc7[] = {
/* columns rows colors chars-per-pixel */
"60 60 174 2 ",
"   c None",
".  c #795A75",
"X  c #9C243D",
"o  c #A0213B",
"O  c #DD0639",
"+  c #DE093B",
"@  c #DA0639",
"#  c #E20235",
"$  c #E10739",
"%  c #E20A3C",
"&  c #E5113F",
"*  c #9C2943",
"=  c #992B44",
"-  c #94344E",
";  c #903E58",
":  c #AD2945",
">  c #B92E4D",
",  c #993F61",
"<  c #DA0E40",
"1  c #D61646",
"2  c #DB1142",
"3  c #D41B4A",
"4  c #E00F40",
"5  c #E21343",
"6  c #E41847",
"7  c #E41C4A",
"8  c #E81A48",
"9  c #D1214F",
"0  c #CF2452",
"q  c #CE2956",
"w  c #CB2E5A",
"e  c #D12452",
"r  c #D32B58",
"t  c #CD315C",
"y  c #D6345C",
"u  c #E5214E",
"i  c #E8214F",
"p  c #E72651",
"a  c #EA2652",
"s  c #E92B56",
"d  c #EA2E59",
"f  c #E52B56",
"g  c #F52E56",
"h  c #F72D56",
"j  c #ED355E",
"k  c #E6355C",
"l  c #F2335B",
"z  c #D43A64",
"x  c #EE3760",
"c  c #ED3A62",
"v  c #F13A62",
"b  c #F53C6F",
"n  c #F23760",
"m  c #884A68",
"M  c #924B6C",
"N  c #BC4C7A",
"B  c #89607D",
"V  c #DF4A72",
"C  c #D7557D",
"Z  c #DA527A",
"A  c #D74168",
"S  c #E5426B",
"D  c #E14870",
"F  c #E84773",
"G  c #F14879",
"H  c #E3567C",
"J  c #437084",
"K  c #587A95",
"L  c #B75482",
"P  c #9C668F",
"I  c #847E9E",
"U  c #BD759D",
"Y  c #BA7AA3",
"T  c #CF5F87",
"R  c #D35B83",
"E  c #F4538B",
"W  c #FA518E",
"Q  c #F95692",
"!  c #F55C96",
"~  c #F65D98",
"^  c #F84D83",
"/  c #CC638B",
"(  c #C0668B",
")  c #C56C94",
"_  c #C1719A",
"`  c #F4619C",
"'  c #E76696",
"]  c #C07BA7",
"[  c #EF6DA3",
"{  c #EA76A9",
"}  c #4E859E",
"|  c #4D8097",
" . c #54859F",
".. c #4E8BA5",
"X. c #4F8FA9",
"o. c #5087A1",
"O. c #518AA4",
"+. c #4E94AD",
"@. c #5591AC",
"#. c #5999B6",
"$. c #6D83A0",
"%. c #58A0BD",
"&. c #55B1D0",
"*. c #5CA5C4",
"=. c #75A2C6",
"-. c #65AED0",
";. c #70ACD0",
":. c #69B7D9",
">. c #62A8C8",
",. c #6DBEE2",
"<. c #6CC3E7",
"1. c #7FC7EE",
"2. c #73C9EE",
"3. c #7DC8EF",
"4. c #71C5E9",
"5. c #74CEF6",
"6. c #7ACCF3",
"7. c #6EDBFF",
"8. c #77D0F7",
"9. c #79D1F7",
"0. c #75D3FA",
"q. c #7AD4FA",
"w. c #71D9FE",
"e. c #7AD9FE",
"r. c #6BE4FF",
"t. c #7DE7FF",
"y. c #968EB9",
"u. c #AB87AE",
"i. c #B482AA",
"p. c #AB8CB4",
"a. c #A98FB8",
"s. c #B28AB2",
"d. c #A693BB",
"f. c #A892B9",
"g. c #C28BB3",
"h. c #DE80B0",
"j. c #9E9FC7",
"k. c #929BC5",
"l. c #A299C1",
"z. c #9AA3CB",
"x. c #96A7CF",
"c. c #93ACD4",
"v. c #8DB4DC",
"b. c #82B7DB",
"n. c #90B0D7",
"m. c #87AAD4",
"M. c #A9ADD1",
"N. c #87BCE3",
"B. c #89B9E1",
"V. c #C69EC9",
"C. c #D8A7CD",
"Z. c #D1AFD2",
"A. c #CEB9DA",
"S. c #81C3EA",
"D. c #82D4F8",
"F. c #8CD8F9",
"G. c #8DD7F9",
"H. c #96DBF9",
"J. c #9DDEFA",
"K. c #BED1EB",
"L. c #A1DEFA",
"P. c #84E4FF",
"I. c #A5E1FB",
"U. c #ADE4FB",
"Y. c #ACE9FE",
"T. c #B4E6FC",
"R. c #BAE7FB",
"E. c #B6EBFD",
"W. c #B9E8FC",
"Q. c #BAE9FC",
"!. c #B6F2FF",
"~. c #C3D4ED",
"^. c #C0DAF2",
"/. c #C6C8E5",
/* pixels */
"                                                                                                                        ",
"                                                                                                                        ",
"                                                                                            e q                         ",
"                                                                                        7 k j 7 # 9                     ",
"                                                                                      9 c c j + + + r z y q             ",
"                                                                                      5 c c % + + % c n c c $           ",
"                                                                                      s c j O O + 7 c c c p #           ",
"                                                                                    e c c 7 O O @ j c c c % +           ",
"                                                                                    1 c c 5 + + + c c c 7 O O 1         ",
"                                                                                    5 c c 5 O + 5 c c k + + + + 2       ",
"                                                                                    3 s c 2 + + 7 c c O + + u s i 2     ",
"                                                                                    3 7 v 7 O O a c O O @ 7 c c c 7     ",
"                                                            5.9.8.8.) j c i.  3 5 7 + % j p O O 7 % O + p x c c c 8     ",
"                                                      S c e.I.D.8.7.Z c c ) r.6.P q 7 O 7 j O O + O + j c c c j p %     ",
"                                                  U n G ! K.q.6.8.8.R c l ) 5.8.0.=., # 4 a + % 4 c c j s 7 5 + # 3     ",
"                                              5.w.g.E ` ^ S.8.8.8.w./ c c V 7.8.8.e.&.M $ 5 + $ 5 + $ $ + < 1 0         ",
"                                            8.q.Y.C.Q G l l.w.9.8.8.Y j c S B.8.8.8.2.%.m < q                           ",
"                                        8.8.H.Q.E.A.G j l s.0.8.8.w.a.l c c l.0.8.8.0.,.+.m                             ",
"                                      6.5.L.W.W.Q.M.S v l / 7.8.8.8.S.l c g ) 6.8.8.8.5.>.K                             ",
"                                    R 7.U.W.W.W.H.S.l v j V 3.8.8.q.6.T l c c v.0.8.8.q.:.O. .                          ",
"                                    R U.Q.Q.W.J.8.w.Z j j S v.0.8.8.0.d.j c g _ 6.8.8.8.2.@...                          ",
"                                  c ' !.Q.Q.U.8.8.9.) l c g l.0.8.8.0.N.R l c j z.0.8.8.e.#...K                         ",
"                                c G { R.R.R.8.8.8.7.p.l v j R w.8.8.8.w.p.l c l T B.8.8.q.:.o.}                         ",
"                                c ~ ! E.W.G.8.8.8.8.S.g c j D N.8.8.8.8.S.) l c c _ 7.8.q.:.o.O.                        ",
"                              V E ! ` K.T.8.8.8.8.8.3.R j c c f.w.8.8.8.8.N.l c j j z.0.9.2.} O.                        ",
"                            8.] Q ! E A.D.8.8.8.8.8.0.Y j j l / 3.8.8.8.8.w.i.c j j S 9.0.4.O.O.                        ",
"                            w.V.! ! ! { 7.8.8.8.8.8.0.x.c j c c v.8.8.8.8.9.8.C j v g i.3.2.} O.                        ",
"                            9.~.W ! ! G 3.0.8.8.8.8.8.7.V c j l U 6.8.8.8.8.7.z.D j j S v.<.} O.                        ",
"                          5.F.!.{ ! ! c s.7.5.8.8.8.8.w.f.g c c c b.q.8.8.8.8.8.s.l j g ) ;.} ..                        ",
"                          0.I.W.Z.W E j R 3.6.8.8.8.8.8.9.c c c l Y 9.8.8.8.8.0.N.C l S k y.....                        ",
"                          9.T.W.K.[ G c S d.7.8.8.8.8.8.8.i.g c c j 1.8.8.8.0.9.9.z.h j l M  .O.                        ",
"                          8.T.W.W.C.b c l R 3.8.8.8.8.8.8.v.c c j g i.w.8.8.9.9.0.9./ l j = K J                         ",
"                          9.Q.Q.E.^.H j j S d.t.8.8.8.8.8.3.) l c j c 0.5.6.8.8.8.8.c.l y o .                           ",
"                          q.R.R.Q.Q.j.h j l R S.8.8.8.9.8.w.l.c c c l z.w.9.8.8.8.8.3.R : o -                           ",
"                          9.Q.Q.Q.E.e.R j j S d.7.8.8.8.8.8.N.D l c j ) 0.5.8.8.8.8.0.p.X =                             ",
"                          9.T.Q.Q.Q.0.N.S l g R 6.8.8.8.8.8.7.T c c c Z 1.8.8.8.8.8.0.$.= :                             ",
"                          8.U.W.W.W.D.7.U c c c d.w.8.8.8.8.0.l.g c c l B.q.8.8.6.5.5...X                               ",
"                          5.H.Q.Q.Q.q.q.N.S c l ) 6.8.8.8.8.0.v.c c c l i.w.8.8.8.q.@. .;                               ",
"                            D.T.W.W.F.8.7._ c j S v.w.6.8.8.8.S.S c c l U 8.8.8.q.>.O...                                ",
"                            9.J.Q.W.H.8.8.N.l c g Y 6.5.8.8.8.7.R j c j Z 7.8.8.,.} O.                                  ",
"                            8.e.T.W.U.5.8.7.C j c D 0.8.8.8.8.8.U l c c S S.9.,.} O.                                    ",
"                              k.P.U.Q.D.8.8.f.l c h v.8.8.8.8.7.Y l c c S 0.,.o.O.                                      ",
"                              r m.F.W.I.5.w.c.c j c i.w.8.8.8.8.p.j c c c =.O.O.                                        ",
"                  t q e 0 q 3 a q y.t.I.D.8.6.c c l _ 0.8.8.6.w.f.l v c :  .O.                                          ",
"        r 5 f a j c j c j % 5 7 6 % y.9.q.9.9.R l c D 0.8.8.8.0.s.j > X -                                               ",
"      5 j c c c c c c c x + p @ u 5 + L z.w.w.R c c Z 6.q.e.2.<.B X =                                                   ",
"      i c c c c c j s s 7 5 s O + 5 + + 2 N b.( y k A :.-.@.@.} m                                                       ",
"      i c c j 7 5 O + @ + 7 s + O + 2 q 9           m +.                                                                ",
"      7 k 7 O O + O 5 s 7 5 j $ % $ 3                                                                                   ",
"      2 O $ O O % s c 7 O 7 S 5 + + +                                                                                   ",
"        t + + % k v 5 O O 5 c p O + <                                                                                   ",
"          e 5 c j 5 O + + 2 c a O + +                                                                                   ",
"            7 c 7 + + + + s c 7 + + e                                                                                   ",
"            $ p + + + + 5 c c + + $                                                                                     ",
"            < # + + $ % p S 7 + + #                                                                                     ",
"                      1 5 i + + + w                                                                                     ",
"                        + # # < 2                                                                                       ",
"                                                                                                                        ",
"                                                                                                                        ",
"                                                                                                                        "
};
