/* XPM */
static char *result[] = {
/* columns rows colors chars-per-pixel */
"60 60 154 2 ",
"   c #211F2F",
".  c #211F30",
"X  c #27232F",
"o  c #2A242F",
"O  c #332B2E",
"+  c #3A2E2C",
"@  c #3E312D",
"#  c #222031",
"$  c #282531",
"%  c #2B2830",
"&  c #3F3A31",
"*  c #46372B",
"=  c #4A392A",
"-  c #433D31",
";  c #4C412E",
":  c #574129",
">  c #4E4731",
",  c #4B4432",
"<  c #5C5432",
"1  c #5E573C",
"2  c #6C4E25",
"3  c #775523",
"4  c #7A5C26",
"5  c #685E35",
"6  c #746A32",
"7  c #312F41",
"8  c #383649",
"9  c #4B4742",
"0  c #534F45",
"q  c #48475B",
"w  c #46485A",
"e  c #464654",
"r  c #615D4B",
"t  c #625F5A",
"y  c #625E56",
"u  c #6C6545",
"i  c #63605E",
"p  c #7E7857",
"a  c #525366",
"s  c #5B5C6C",
"d  c #64626E",
"f  c #636166",
"g  c #7F7A62",
"h  c #606172",
"j  c #6A6C7B",
"k  c #616679",
"l  c #72717C",
"z  c #BB5B0C",
"x  c #AC5610",
"c  c #91651F",
"v  c #9C6C1E",
"b  c #8C6220",
"n  c #866727",
"m  c #936D23",
"M  c #987D2C",
"N  c #807431",
"B  c #867A39",
"V  c #887C38",
"C  c #BC762B",
"Z  c #C06C11",
"A  c #C87A29",
"S  c #8E8032",
"D  c #948532",
"F  c #9A8B32",
"G  c #A2872D",
"H  c #A58D3C",
"J  c #AB9A33",
"K  c #BDA12D",
"L  c #BFAB32",
"P  c #CE8B16",
"I  c #CD901F",
"U  c #D1951B",
"Y  c #D2991C",
"T  c #D09922",
"R  c #D7AA24",
"E  c #D9AF26",
"W  c #DBB62A",
"Q  c #DDBB2C",
"!  c #C1AD32",
"~  c #D7A33C",
"^  c #D5A037",
"/  c #C5B137",
"(  c #E1CA34",
")  c #E3CD3C",
"_  c #E0C632",
"`  c #958C58",
"'  c #A59C5C",
"]  c #BFB04D",
"[  c #9B9463",
"{  c #A8A169",
"}  c #AAA375",
"|  c #B7B077",
" . c #DDAB53",
".. c #DACB5D",
"X. c #E5D144",
"o. c #E7D34A",
"O. c #E8D44D",
"+. c #E8D653",
"@. c #EAD857",
"#. c #EBDA5C",
"$. c #D0C56F",
"%. c #D8CE7B",
"&. c #EDDD64",
"*. c #EFDF6A",
"=. c #ECD375",
"-. c #ECDE70",
";. c #EFE06B",
":. c #F0E16F",
">. c #F0E271",
",. c #F3E67B",
"<. c #747582",
"1. c #777987",
"2. c #7B7F8F",
"3. c #81808A",
"4. c #8A8A94",
"5. c #90949F",
"6. c #AAA584",
"7. c #ACA99D",
"8. c #8F98A2",
"9. c #9F9EA5",
"0. c #9C9FAA",
"q. c #99A2AB",
"w. c #ABAAA9",
"e. c #ADADB3",
"r. c #A9AFB8",
"t. c #D4CC8B",
"y. c #F5EA84",
"u. c #F2E68C",
"i. c #F7EC8A",
"p. c #F8EE95",
"a. c #F5EB9C",
"s. c #F8EE9A",
"d. c #F5EA93",
"f. c #DBD7B7",
"g. c #F6EDA6",
"h. c #F9F0A3",
"j. c #F9F2AD",
"k. c #F4EBB4",
"l. c #FAF3B4",
"z. c #FAF3BB",
"x. c #AFBBC3",
"c. c #B2BCC4",
"v. c #C0C7CD",
"b. c #C3C8CE",
"n. c #DAD9DC",
"m. c #FBF6C7",
"M. c #FCF8D4",
"N. c #FCF9D9",
"B. c #D8E1E4",
"V. c #E6ECEE",
"C. c #FDFBE6",
"Z. c #FFFFFF",
"A. c #FEFDF0",
"S. c None",
/* pixels */
"S.S.S.S.S.S.S.S.S.S.S.S.S.S.S.S.S.S.S.S.S.S.S.S.S.S.S.S.S.S.S.S.S.S.S.S.S.S.S.S.S.S.S.S.S.S.S.S.S.S.S.S.S.S.S.S.S.S.S.S.",
"S.S.S.S.S.S.S.S.S.S.S.S.S.S.S.S.S.S.S.S.S.S.S.S.S.S.S.S.S.S.S.S.S.S.S.S.S.S.S.S.S.S.S.S.S.S.S.S.S.S.S.S.S.S.S.S.S.S.S.S.",
"S.S.S.S.S.S.S.S.S.S.S.S.S.S.S.S.S.S.S.S.S.S.S.S.S.S.S.S.S.S.S.S.S.S.S.S.S.S.S.S.S.S.S.S.S.S.S.S.S.S.S.S.S.S.S.S.S.S.S.S.",
"S.S.S.S.S.S.S.S.S.S.S.S.S.S.S.S.S.S.S.S.S.S.S.S.S.S.S.S.S.S.S.S.S.S.S.S.S.S.S.S.S.S.S.S.S.S.S.S.S.S.S.S.S.S.S.S.S.S.S.S.",
"S.S.S.S.S.S.S.S.S.S.S.S.S.S.S.S.S.S.S.S.S.S.S.S.S.S.S.S.S.S.S.S.S.S.S.S.S.S.S.S.S.S.S.S.S.S.S.S.S.S.S.S.S.S.S.S.S.S.S.S.",
"S.S.S.S.S.S.S.S.S.S.S.S.S.S.S.S.S.S.S.S.S.S.S.S.S.S.S.S.S.S.S.S.S.S.S.S.S.S.S.S.S.S.S.S.S.S.S.S.S.S.S.S.S.S.S.S.S.S.S.S.",
"S.S.S.S.S.S.S.S.S.S.S.S.S.S.S.S.S.S.S.S.S.S.S.S.S.S.S.S.S.S.S.S.S.S.S.S.S.S.S.S.S.S.S.S.S.S.S.S.S.S.S.S.S.S.S.S.S.S.S.S.",
"S.S.S.S.S.S.S.S.S.S.S.S.S.S.S.S.S.S.S.S.S.S.S.S.S.S.S.S.S.S.S.S.S.S.S.S.S.S.S.S.S.S.S.S.S.S.S.S.S.S.S.S.S.S.S.S.S.S.S.S.",
"S.S.S.S.S.S.S.S.S.S.S.S.S.S.S.S.S.S.S.S.S.S.S.S.S.S.S.S.S.S.S.S.S.S.S.S.S.S.S.S.S.S.S.S.S.S.S.S.S.S.S.S.S.S.S.S.S.S.S.S.",
"S.S.S.S.S.S.S.S.S.S.S.S.S.S.S.S.S.S.S.S.S.S.S.S.S.S.S.S.S.S.S.S.S.S.S.S.S.S.S.S.S.S.S.S.S.S.S.S.S.S.S.S.S.S.S.S.S.S.S.S.",
"S.S.S.S.S.S.S.S.S.S.S.S.S.S.S.S.S.S.S.S.S.S.S.S.S.S.S.S.S.S.S.S.S.S.S.S.S.S.S.S.S.S.S.S.S.S.S.S.S.S.S.S.S.S.S.S.S.S.S.S.",
"S.S.S.S.S.S.S.S.S.S.S.S.S.S.S.S.S.S.S.S.S.S.S.S.S.S.S.S.S.S.S.S.S.S.S.S.S.S.S.S.S.S.S.S.S.S.S.S.S.S.S.S.S.S.S.S.S.S.S.S.",
"S.S.S.S.S.S.S.S.S.S.S.S.S.S.S.S.S.S.S.S.S.S.S.S.S.S.S.S.S.S.S.S.S.S.S.S.S.S.S.S.S.S.S.S.S.S.S.S.S.S.S.S.S.S.S.S.S.S.S.S.",
"S.S.S.S.S.S.S.S.S.S.S.S.S.S.S.S.S.S.S.S.S.S.S.S.S.S.S.S.S.S.S.S.S.S.S.S.S.S.S.S.S.S.S.S.S.S.S.S.S.S.S.S.S.S.S.S.S.S.S.S.",
"S.S.S.S.S.S.S.S.S.S.S.S.S.S.S.S.S.S.S.S.S.S.S.S.S.S.S.S.S.S.S.S.S.S.S.S.S.S.S.S.S.S.S.S.S.S.S.S.S.S.S.S.S.S.S.S.S.S.S.S.",
"S.S.S.S.S.S.S.S.S.S.S.S.S.S.S.S.S.S.S.S.S.S.S.S.S.S.S.S.S.S.S.S.S.S.S.S.S.S.S.S.S.S.S.S.S.S.S.S.S.S.S.S.S.S.S.S.S.S.S.S.",
"S.S.S.S.S.S.S.S.S.S.S.S.S.S.S.S.S.S.S.S.S.S.S.S.S.S.S.S.S.S.S.S.S.S.S.S.S.S.S.S.S.S.S.S.S.S.S.S.S.S.S.S.S.S.S.S.S.S.S.S.",
"S.S.S.S.S.S.S.S.S.S.S.S.S.S.S.S.S.S.S.S.S.S.S.S.S.S.S.S.S.S.S.S.S.S.S.S.S.S.S.S.S.S.S.S.S.S.S.S.S.S.S.S.S.S.S.S.S.S.S.S.",
"S.S.S.S.S.S.S.S.S.S.S.S.S.S.S.S.S.S.S.S.S.S.S.S.S.S.S.S.S.S.S.S.S.S.S.S.S.S.S.S.S.S.S.S.S.S.S.S.S.S.S.S.S.S.S.S.S.S.S.S.",
"S.S.S.S.S.S.S.S.S.S.S.S.S.S.S.S.: < r r r r r r r r r r r r r r r r r r t i i d y f d d S.S.S.S.S.S.S.S.S.S.S.S.S.S.S.S.",
"S.S.S.S.S.S.S.S.S.S.S.S.S.S.S.X U ) ;.;.&.:.*.*.*.*.*.*.*.*.*.*.*.*.*.*.a.a.g.M.u.z.M.M.$ S.S.S.S.S.S.S.S.S.S.S.S.S.S.S.",
"S.S.S.S.S.S.S.S.S.S.l g p 6 2 X b V S G T Y T T T T T T T T T T T T T T ^ ~ ~  .H ` [ [ $ 6 p g 3.l S.S.S.S.S.S.S.S.S.S.",
"S.S.S.S.S.S.S.S.S.<.f.s.&.) P . o 3 4 M I I I I I I I I I I I I I I I I I I I I M N N % . ( &.*.m.f.<.S.S.S.S.S.S.S.S.S.",
"S.S.S.S.S.S.S.S.X e.j.&.V 6 2 X b I W _ X.&.&.&.&.&.&.&.&.&.&.&.&.&.&.&.&.&.&.&.&.&.) F # 6 6 V &.j.e.# S.S.S.S.S.S.S.S.",
"S.S.S.S.S.S.S.S.  6.*.B S.S.S.X P U ( X.,.>.:.i.i.i.i.i.i.i.i.i.i.i.s.M.l.i.l.M.h.i.;.) $ S.S.S.B *.6.. S.S.S.S.S.S.S.S.",
"S.S.S.S.S.S.S.S.X w.&., S.S.S.X P U _ O.i.,.,.i.i.i.i.i.i.i.i.i.i.i.j.Z.m.l.A.Z.C.s.i.) $ S.S.S.> O.{ . S.S.S.S.S.S.S.S.",
"S.S.S.S.S.S.S.S.# } +.> S.S.S.$ P U ( O.>.&.i.i.i.i.i.i.i.i.i.i.i.i.p.h.s.m.Z.Z.Z.h.i.) o S.S.S.> &.w.. S.S.S.S.S.S.S.S.",
"S.S.S.S.S.S.S.S.# { O.> S.S.S.# P U ( O.y.y.i.i.i.i.i.i.i.i.i.i.i.i.i.i.i.p.M.Z.z.p.i.) $ S.S.S.> -.e.. S.S.S.S.S.S.S.S.",
"S.S.S.S.S.S.S.S.X { O.> S.S.S.X P Y ( O.i.i.i.i.i.i.i.i.i.i.i.i.i.i.i.i.i.i.p.s.i.i.i.) $ S.S.S.> +.} . S.S.S.S.S.S.S.S.",
"S.S.S.S.S.S.S.S.# { O.> S.S.S.X P U _ O.i.i.i.i.i.i.i.i.i.i.i.i.i.i.i.i.i.i.i.i.N.h.i.) $ S.S.S.> o.{ X S.S.S.S.S.S.S.S.",
"S.S.S.S.S.S.S.S.# { O.> S.S.S.X P U ( O.i.i.i.i.i.i.i.i.i.i.i.i.i.i.i.i.i.i.i.i.i.i.i.) $ S.S.S.> O.{ # S.S.S.S.S.S.S.S.",
"S.S.S.S.S.S.S.S.# { O.> S.S.S.o P Y ( O.i.y.y.i.i.i.i.i.i.i.i.i.i.i.i.i.i.i.i.i.i.i.i.) $ S.S.S.> O.{ # S.S.S.S.S.S.S.S.",
"S.S.S.S.S.S.S.S.# { @.5 S.S.S.$ P U _ o.y.:.;.,.,.i.i.i.i.i.i.i.i.i.i.i.i.i.,.i.y.i.,.) % S.S.S.5 @.{ X S.S.S.S.S.S.S.S.",
"S.S.S.S.S.S.S.S.# ' y.@.u > = X P U ( ( O.,.i.#.( :.i.,.y.i.i.i.i.i.i.i.i.i.&.>.i.,.) ( % > 0 u @.y.' # S.S.S.S.S.S.S.S.",
"S.S.S.S.S.S.S.S.S.N ..>.:.) P : v U Q _ _ O.:.#.O.>.i.+.,.i.i.y.i.y.i.i.i.i.i.,.>.X._ J < ( >.:.>...N S.S.S.S.S.S.S.S.S.",
"S.S.S.S.S.S.S.S.S.S.N F F F b b O P U Q ( ( ( O.:.;.;.;.;.;.:.;.:.;.:.:.;.;.;.o.( ( Q O F F F F F N S.S.S.S.S.S.S.S.S.S.",
"S.S.S.S.S.S.S.S.S.S.S.# # # # X O c P U E Q ( _ ( ( ( ( ( ( _ ( ( ( _ ( ( ( _ ( W E m O # # # X # S.S.S.S.S.S.S.S.S.S.S.",
"S.S.S.S.S.S.S.S.S.S.S.S.S.S.S.S.S.+ 3 c P Y E R R R R R R R R R R R R R R R R R m 3 + S.S.S.S.S.S.S.S.S.S.S.S.S.S.S.S.S.",
"S.S.S.S.S.S.S.S.S.S.S.S.S.S.S.S.S.S.S.* 2 2 2 2 2 2 2 2 2 Z Z 2 2 2 2 2 2 2 2 2 * S.S.S.S.S.S.S.S.S.S.S.S.S.S.S.S.S.S.S.",
"S.S.S.S.S.S.S.S.S.S.S.S.S.S.S.S.S.S.S.S.S.S.S.S.S.S.X . V R T V X   S.S.S.S.S.S.S.S.S.S.S.S.S.S.S.S.S.S.S.S.S.S.S.S.S.S.",
"S.S.S.S.S.S.S.S.S.S.S.S.S.S.S.S.S.S.S.S.S.S.S.S.S.S.. D &.>.>.-.[ . S.S.S.S.S.S.S.S.S.S.S.S.S.S.S.S.S.S.S.S.S.S.S.S.S.S.",
"S.S.S.S.S.S.S.S.S.S.S.S.S.S.S.S.S.S.S.S.S.S.S.S.S.. . - C A A C 9 . # S.S.S.S.S.S.S.S.S.S.S.S.S.S.S.S.S.S.S.S.S.S.S.S.S.",
"S.S.S.S.S.S.S.S.S.S.S.S.S.S.S.S.S.S.S.S.S.S.S.S.. b K $.=.=.=.=.t.n.w.. S.S.S.S.S.S.S.S.S.S.S.S.S.S.S.S.S.S.S.S.S.S.S.S.",
"S.S.S.S.S.S.S.S.S.S.S.S.S.S.S.S.S.S.S.S.S.S.S.S.. m Q ,.i.i.i.i.i.s.| # S.S.S.S.S.S.S.S.S.S.S.S.S.S.S.S.S.S.S.S.S.S.S.S.",
"S.S.S.S.S.S.S.S.S.S.S.S.S.S.S.S.S.S.S.S.S.S.S.S.. v Q ( ( ( ) ( ) ( J . S.S.S.S.S.S.S.S.S.S.S.S.S.S.S.S.S.S.S.S.S.S.S.S.",
"S.S.S.S.S.S.S.S.S.S.S.S.S.S.S.S.S.S.S.S.S.S.S.S.S.  . $ x z _ x $ . . S.S.S.S.S.S.S.S.S.S.S.S.S.S.S.S.S.S.S.S.S.S.S.S.S.",
"S.S.S.S.S.S.S.S.S.S.S.S.S.S.S.S.S.S.S.S.S.S.S.S.S.S.. ! ) ) ) ) / . S.S.S.S.S.S.S.S.S.S.S.S.S.S.S.S.S.S.S.S.S.S.S.S.S.S.",
"S.S.S.S.S.S.S.S.S.S.S.S.S.S.S.S.S.S.S.S.S.S.S.S.S.S.- / y.i.i.i.%.& S.S.S.S.S.S.S.S.S.S.S.S.S.S.S.S.S.S.S.S.S.S.S.S.S.S.",
"S.S.S.S.S.S.S.S.S.S.S.S.S.S.S.S.S.S.S.S.S.S.S.S.S., L _ >.>.i.y.;.L , S.S.S.S.S.S.S.S.S.S.S.S.S.S.S.S.S.S.S.S.S.S.S.S.S.",
"S.S.S.S.S.S.S.S.S.S.S.S.S.S.S.S.S.S.S., < 1 r r r ] O.O.O.O.i.y.O.O.] r t i f d e S.S.S.S.S.S.S.S.S.S.S.S.S.S.S.S.S.S.S.",
"S.S.S.S.S.S.S.S.S.S.S.S.S.S.S.S.S.S.@ n ( O.*.*.*.*.*.*.:.:.&.:.*.*.*.*.u.u.d.k.` - S.S.S.S.S.S.S.S.S.S.S.S.S.S.S.S.S.S.",
"S.S.S.S.S.S.S.S.S.S.S.S.S.S.S.S.S.S.= U E E E E E E E E E E E E E E E E E E E E E ; S.S.S.S.S.S.S.S.S.S.S.S.S.S.S.S.S.S.",
"S.S.S.S.S.S.S.S.S.S.S.S.S.S.S.. . . O 3 3 3 3 3 3 3 3 3 3 3 3 3 3 3 3 3 3 3 3 3 3 O X . . S.S.S.S.S.S.S.S.S.S.S.S.S.S.S.",
"S.S.S.S.S.S.S.S.S.S.S.S.S.S.. 8 q q s 9.9.9.<.w q q 4.9.9.9.q q w s 9.9.9.l w q q 4.9.9.9.. S.S.S.S.S.S.S.S.S.S.S.S.S.S.",
"S.S.S.S.S.S.S.S.S.S.S.S.S.S.. 7 a a <.V.V.V.0.a a a v.V.V.V.a a a <.V.V.V.0.a a a b.V.V.Z.. S.S.S.S.S.S.S.S.S.S.S.S.S.S.",
"S.S.S.S.S.S.S.S.S.S.S.S.S.S.. # q q j B.B.B.5.q q q c.B.B.B.q q q j B.B.B.8.q q q c.B.B.Z.. S.S.S.S.S.S.S.S.S.S.S.S.S.S.",
"S.S.S.S.S.S.S.S.S.S.S.S.S.S.. # q q j B.B.B.8.q q q c.B.B.B.q q q j B.B.B.8.q q q c.B.B.Z.. S.S.S.S.S.S.S.S.S.S.S.S.S.S.",
"S.S.S.S.S.S.S.S.S.S.S.S.S.S.. q.v.v.r.h h h 8.v.v.v.1.h h h v.v.v.r.h h h 8.v.v.v.1.h h 2.. S.S.S.S.S.S.S.S.S.S.S.S.S.S.",
"S.S.S.S.S.S.S.S.S.S.S.S.S.S.. c.B.B.c.q q q 8.B.B.B.j q q q B.B.B.c.q q q 8.B.B.B.j q q k . S.S.S.S.S.S.S.S.S.S.S.S.S.S.",
"S.S.S.S.S.S.S.S.S.S.S.S.S.S.. x.x.x.8.# # # j c.x.c.e . . . c.c.c.8.. . . j x.c.c.e . . q . S.S.S.S.S.S.S.S.S.S.S.S.S.S."
};
