/* XPM */
static char *_a4c526f508949e2c5c65d1e4aaf488eFIOkYAgTnVY9xPuc[] = {
/* columns rows colors chars-per-pixel */
"60 60 253 2 ",
"   c None",
".  c #020101",
"X  c #0B0302",
"o  c #090809",
"O  c #1B0D0B",
"+  c #150906",
"@  c #1C100D",
"#  c #1C1415",
"$  c #0F1814",
"%  c #23140C",
"&  c #27160C",
"*  c #371A09",
"=  c #2C1A13",
"-  c #271613",
";  c #331D16",
":  c #341C14",
">  c #240E08",
",  c #34221A",
"<  c #3B241C",
"1  c #3A2719",
"2  c #2F241F",
"3  c #2A2728",
"4  c #3A2B25",
"5  c #3E302B",
"6  c #1D2A2A",
"7  c #4D0905",
"8  c #570906",
"9  c #58170A",
"0  c #64180A",
"q  c #6E170D",
"w  c #49220C",
"e  c #432414",
"r  c #46291A",
"t  c #572A16",
"y  c #5B341E",
"u  c #543015",
"i  c #52240F",
"p  c #69271A",
"a  c #63351C",
"s  c #6F2B17",
"d  c #432C24",
"f  c #4A2E24",
"g  c #5A2E25",
"h  c #4C3426",
"j  c #4D342A",
"k  c #483329",
"l  c #543424",
"z  c #5B3424",
"x  c #5C3B2C",
"c  c #56382A",
"v  c #4A3A36",
"b  c #593B31",
"n  c #692E23",
"m  c #6B3A25",
"M  c #663927",
"N  c #723D2C",
"B  c #773727",
"V  c #733D31",
"C  c #763530",
"Z  c #5B4436",
"A  c #7A422D",
"S  c #77462F",
"D  c #6C4334",
"F  c #684638",
"G  c #744434",
"H  c #744B3C",
"J  c #774537",
"K  c #254043",
"L  c #534947",
"P  c #544D4F",
"I  c #7E4F42",
"U  c #795548",
"Y  c #68524D",
"T  c #7B6353",
"R  c #766968",
"E  c #767071",
"W  c #850C04",
"Q  c #8F150D",
"!  c #9A2A1B",
"~  c #B01C27",
"^  c #853325",
"/  c #87382A",
"(  c #943930",
")  c #A22E2F",
"_  c #E2342D",
"`  c #CF2B29",
"'  c #834433",
"]  c #8B4B39",
"[  c #884838",
"{  c #924C3B",
"}  c #944536",
"|  c #87503B",
" . c #964A36",
".. c #A94A3C",
"X. c #A6553E",
"o. c #BB623E",
"O. c #D14738",
"+. c #E4433B",
"@. c #964E43",
"#. c #845245",
"$. c #8B5646",
"%. c #9C5343",
"&. c #955A47",
"*. c #88554D",
"=. c #A14C45",
"-. c #B24D42",
";. c #A75747",
":. c #B35B4C",
">. c #B8594A",
",. c #A85D53",
"<. c #BC5D52",
"1. c #B45951",
"2. c #97624D",
"3. c #8B6659",
"4. c #986556",
"5. c #BD634E",
"6. c #A36553",
"7. c #AB6553",
"8. c #AA6859",
"9. c #B46253",
"0. c #BB6354",
"q. c #B86959",
"w. c #A9725C",
"e. c #AE6954",
"r. c #847A7A",
"t. c #957E79",
"y. c #986D65",
"u. c #B86C64",
"i. c #AD7563",
"p. c #A87966",
"a. c #BA7467",
"s. c #A76D64",
"d. c #9A5E60",
"f. c #C35C51",
"g. c #CD5E54",
"h. c #D6534E",
"j. c #EB5658",
"k. c #C6694A",
"l. c #C4655B",
"z. c #C46B5B",
"x. c #CB6B5C",
"c. c #C86555",
"v. c #D86859",
"b. c #CB7558",
"n. c #D5745B",
"m. c #E7695A",
"M. c #F4755E",
"N. c #E45065",
"B. c #C86D63",
"V. c #D96963",
"C. c #C87765",
"Z. c #D37363",
"A. c #DC7464",
"S. c #DB7D6B",
"D. c #D77967",
"F. c #C97976",
"G. c #D87B75",
"H. c #E36C65",
"J. c #E17C6B",
"K. c #E77766",
"L. c #F67B68",
"P. c #E87A73",
"I. c #F47C73",
"U. c #F1696E",
"Y. c #8D827F",
"T. c #BB8674",
"R. c #B9816D",
"E. c #DE845D",
"W. c #DC826A",
"Q. c #D9856A",
"!. c #CA8675",
"~. c #D88976",
"^. c #DA957B",
"/. c #CE8E65",
"(. c #E4856D",
"). c #EB836C",
"_. c #E8896B",
"`. c #F78A6D",
"'. c #E38B74",
"]. c #EB8B74",
"[. c #E78879",
"{. c #F48474",
"}. c #F48C7A",
"|. c #F88778",
" X c #E5937C",
".X c #EC927B",
"XX c #EA9778",
"oX c #F3937C",
"OX c #F7987C",
"+X c #F0926E",
"@X c #F4A27D",
"#X c #D8A06F",
"$X c #787980",
"%X c #9C9494",
"&X c #918888",
"*X c #A59C9B",
"=X c #AD8E8B",
"-X c #B6ABA8",
";X c #BFAD84",
":X c #DB9984",
">X c #C79990",
",X c #EB8C83",
"<X c #F78C84",
"1X c #EC9384",
"2X c #E39A85",
"3X c #EC9B85",
"4X c #E9998A",
"5X c #F49383",
"6X c #F49B84",
"7X c #F39C8C",
"8X c #F99888",
"9X c #F49D92",
"0X c #FC9D95",
"qX c #ED9F91",
"wX c #EAA484",
"eX c #ECA48A",
"rX c #EBA98C",
"tX c #E5A58A",
"yX c #F4A58D",
"uX c #FAA38C",
"iX c #F4AC8C",
"pX c #FAAA8D",
"aX c #F7A385",
"sX c #F6B28E",
"dX c #ECAC91",
"fX c #E9A895",
"gX c #F5A493",
"hX c #FCA593",
"jX c #F5AC93",
"kX c #FAAB94",
"lX c #F5AB9B",
"zX c #FBAC9B",
"xX c #FCA69A",
"cX c #FBB395",
"vX c #F5B39C",
"bX c #FBB29C",
"nX c #F8B495",
"mX c #EEB194",
"MX c #CFB3AF",
"NX c #FBB4A3",
"BX c #FCBAA4",
"VX c #FCBCAB",
"CX c #F8B7A8",
"ZX c #F0BEB1",
"AX c #FEC3AB",
"SX c #FEC6A6",
"DX c #FFC7B4",
"FX c #FED4B8",
"GX c #CEC1B5",
"HX c #D7CAC4",
"JX c #EFD3C8",
"KX c #FFE8D0",
"LX c #FFF8E3",
/* pixels */
"                                                                                                                        ",
"                                                        %XY.E &X%X                                                      ",
"                                                *XE L - o X . o # # 3 P $X                                              ",
"                                            %XL o X . X . X o . . . . . o 3 R                                           ",
"                                        -X3 . X O O # @ - - O + + . . o . . . 3 *X                                      ",
"                                      R O o = ; ; ; - ; d 4 4 < < - o . . . o . . E                                     ",
"                                  MXv . # j j 4 4 - : d h < = c b d = X . . o o o . E                                   ",
"                                  v . , D d ; < , ; 4 d j k ; x x < 4 @ o . . o o o . &X                                ",
"                                r.. & Z 4 O - = ; l j d j v ; e f d , = @ X . . o # . # JX                              ",
"                              =X+ % f 1 X . . . O ; k j j b d % d j , ; = O . . . # # . P                               ",
"                            HX= > M h r z l r > X X & b U D g c l k h 1 , = O + . X = # . E                             ",
"                            R . 1 x D 4.p.i.i.4.J z w t J #.#.#.f r r e e 1 : & O + @ 2 o 4                             ",
"                            5 X j $.4.p.T.:XfXvXCXmX!.[ B [ &.C i M ' N m m y r * & % , 2 + %X                          ",
"                          *X+ & H 4.4.p.2XcXVXAXVXDXAXlX~.0.;.%.:.z.C.9.%.X.| a y r , 1 1 + R                           ",
"                          L X l 4.6.e.2XcXpXaXiXvXBXVXDXDXkX X1XoX].~.D.q.9.;.| A x u r 4 = Z                           ",
"                          # % 4.R.a.2XiXXXXXaXiXnXvXvXvXvXbXyX6X.X(.W.C.b.q.7.X.] G D Z Z 5 + *X                        ",
"                        %X+ H T.T.:XaXXX].XXaXpXpXpXkXyXeX3X.X].(.W.n.b.c.k.;.X.{ ' D H H Z & P                         ",
"                        T w p.T.^.2X'.(.].+XXXOX6XaXpXiXgXeX.X_._.A.n.b.k.>.X.{ | ' S D Z Z d Z                         ",
"                        F S R.T.^.XX].+X_.`.}.6XaXyXpXkXkXgX6X].(.J.A.n.5.-.X. . .] ' S z Z l v                         ",
"                        #.3.p.!.].(.]..XoX8XpXhXzXNXBXNXNXlXkX.X[.[._.S.x.c.9.7.{ ] [ B y Z h Z                         ",
"                        3.3.4.!._.J.].oX].'.[.[.9XCXVXVXvXgX9X5X7X9X}.D.D.D.0.%.' [ [ G M l k j &X                      ",
"                      HX*.I 4.Q.(.W.[.(.S.~.G.G.[.4XxXNXgX5X,X7XCXxXZ.l.B.q.@.B m A A N z l c k t.                      ",
"                      HXH x 2.Q.n.C.~..XgXZXZXxX4X1X1XxXzX9X1XxXVX,Xl.u.u.7.s.8.9.;.[ N l c b j -X                      ",
"                        T l &.D.n.Q.wXbXVXNXNXNXxX9XgXgXNXxX7XxXxXD.9.a.u.u.G.G.D.x.,.J M F v k                         ",
"                        t.M &.E.D.5XhXhX8XI.I.<X,X7X9XlXNXzX9XhX8X0.,.8.;.<.B.B.x.c.>.@.G Y 1 Y                         ",
"                  M.m.OXZ.J &.Q..XoX<X<XI.<XP.H.V.A.,XqXlXNXxXuX[.{ | { 1.B.V.f.-.>.0.@.G F , Y t.y.                    ",
"                XX` yXSXOX;.%. X3X.X<XI.B.y.Y b n -.H.,XgXBXVXhXB.C C @.u.*.b g V C %.#.H F 1 1 p 8 (                   ",
"                +.h.KXKXBX~.9._.gX4X|.-.d.$XK o $ d.H.1XgXBXVX5X=.g n a.E 6 . 6 Y e B J G D c M ^ Q Q >X                ",
"                _ j.KXFXBXjXQ._.xXhXP...F.MXP o L a.P.hX1XxXhXJ.[ g s a.=Xk > Y d.g z V G D G B ^ ! Q >X                ",
"                +.j.KXFXm.m. X XhX8X8X5X|.<XG.1.g.h.P.1X(.}.|.v./ y V 0.H.V.1.1.-.@.J N G F n s ( Q Q MX                ",
"                U.M.FX{.+.[. X X6X|.oXhXhX8X0X8XU.H.,XS.K.L.L.m.^ t V @.l.P.{.A.<.,.%./ D D 8 q ( W )                   ",
"                VX`.|._ 9XLXXXA.}.|.|.5X9XhX0X<X[.1X.XK.).{.|.H.( g C ( 1.B.Z.B.u.<.;.#.D D 0 0 ^ q a.                  ",
"                  aXL.+.,XJXOXQ.oXOX|.{.}.5X5X1X3XyX].).{.oX|.H.( t N { ;.5.l.c.f.c.>. .H G 8 8 0 q                     ",
"                  CXM.|.{.L.J.^.8XuX8X8X}.{.}.6XkXgX}.].P.{.|.m./ u M ] ;.:.f.c.c.c.0.%.#.M 7 7 8 ,.                    ",
"                    5XL.cXcXXX'.8X8XkXcXuXOXOXuXNXkXOX{.K.L.{.j.) t y / -.f.v.v.v.c.>.{ I G z 7 ^                       ",
"                      `.aXFXsX[.oXuXkXvXbXkXuXgXbXvX`.m.L.<X8XM.O.p i m X.f.n.A.n.c.-.] #.A 8 p                         ",
"                      JX`.`.@X.X6XpXkXNXCXCXjXhXCXkXM.L.0XVXVX|.c.} ^ s / <.A.A.A.x.:.@.I 9 8 >X                        ",
"                        AX6XkXeXOXpXzXBXCXNXbXkXBXhXI.K.(.zXzX<X..^ f./ B l.A.K.A.x.;.$.3./ s.                          ",
"                              AX].uXcXvXBXBXNXlXNXzX|.h.A.5X{.g.^ ( f.( -.Z.S.S.Z.z.} *.=X                              ",
"                              HX(.aXcXbXvXCXbXhXgXzXhXkXNXxXJ.-.<.J.f.<.x.x.Z.Z.x.9./ U                                 ",
"                                '..XpXcXkXzXpXhXhXxXbXVXNXhX6X[.S.Z.Z.Z.x.l.x.z.9.;.B 3.                                ",
"                                tX).uXkXkXpX5XyXzXzXkXbXzX1XkX9XA.G.G.D.x.0.z.0.:.] p =X                                ",
"                                JX_.oXbXpXn.z.1X6XyXkXlXjX7XNX7X~.!.F.u.,.8.C.C.;./ 4.                                  ",
"                                  dX_.SX(.! ~.NXP.N.H.V.H.I.H.f.1.=.=.@.] q.tX~.[ ' MX                                  ",
"                                    nXnX(.g.bXAX0XI.N.N.N.N.` ~ ~ ) @.=.:.q.^.C.2.$.4 R                                 ",
"                                  GX^.sXaXaXcXjXcXbX0X0X<XU.U.N.h.B.u.B.q.&.8.8.8.l . . U                               ",
"                            -X*.2.X.q.wXsXsXcXjXxXNXNXzXzXgXzXhX[.B.u.q.&.$.2.4.M * * *                                 ",
"                          GX& s o.b.E.XXiXiXpXbXvXNXbXxXjXlXlXeX~.a.u.8.$.$.2.D w u u w                                 ",
"                          ;X0 n.@X+XQ.XXsXsXiXiXcXBXNXNXjXuX6X.X~.a.w.&.$.&.H a u y u i                                 ",
"                            /._.@X@X+X#XrXnXsXwXdXbXNXVXkX8XoX[.G.C.7.#.$.2.S m y y i a                                 ",
"                              E.@XsX+X@X@XsXsXsXrXjXjXzXhX5X8X<XJ.l.%.&.2.2.' S y a 9 A                                 ",
"                              #XE.SXsX@X@XrXdXmXdXdXeXyX8X1XyX8XJ.,.2.w.6.| | S D S 0                                   ",
"                                /._.SXwXtXrXrXrXtXtXdXdX2X:X:X:XC.6.p.i.6.&.$.| S B /                                   ",
"                                  o.yXSXtXtXtXwXwXtXfXtX:X/.!.a.w.a.!.a.e.e.2.&.] ^                                     ",
"                                    k.BXSXrXwXwXwXfXfXfX:X^.^.~.~.:X^.C.q.q.e.7.} X.                                    ",
"                                      b.CXAXnXmXdXmXfXtX2X2X:X4XfXfXwX~.!.a.7.X.9.                                      ",
"                                        b.fXVXAXBXbXjX4X2X2X4XfXvXCXvX7X~.u.=.u.                                        ",
"                                          ^.[.gXzXzXkX3X^.[.4XgXvXZXbX7X[.                                              ",
"                                                    XX'.Z.C.~. XtXmX                                                    ",
"                                                                                                                        "
};
