/* XPM */
static char *result[] = {
/* columns rows colors chars-per-pixel */
"60 60 9 1 ",
"  c #93C596",
". c #94C696",
"X c #95C696",
"o c #96C796",
"O c #9CCA98",
"+ c #9DCA98",
"@ c #9DCB98",
"# c #9ECB98",
"$ c #9FCC98",
/* pixels */
"                                                            ",
"$.                                                        .$",
"$#X                                                      X#$",
"$$@X                                                    X@$$",
"$$$@X                                                  X@$$$",
"$$$$@o                                                o@$$$$",
"$$$$$+o                                              o+$$$$$",
"$$$$$$Oo                                            oO$$$$$$",
"$$$$$$$Oo                                          oO$$$$$$$",
"$$$$$$$$+o                                        o+$$$$$$$$",
"$$$$$$$$$@X                                      X@$$$$$$$$$",
"$$$$$$$$$$@X                                    X@$$$$$$$$$$",
"$$$$$$$$$$$@X                                  X@$$$$$$$$$$$",
"$$$$$$$$$$$$#.                                .#$$$$$$$$$$$$",
"$$$$$$$$$$$$$$                                $$$$$$$$$$$$$$",
"$$$$$$$$$$$$$$$                              $$$$$$$$$$$$$$$",
"$$$$$$$$$$$$$$$$.                          .$$$$$$$$$$$$$$$$",
"$$$$$$$$$$$$$$$$#X                        X#$$$$$$$$$$$$$$$$",
"$$$$$$$$$$$$$$$$$@X                      X@$$$$$$$$$$$$$$$$$",
"$$$$$$$$$$$$$$$$$$@X                    X@$$$$$$$$$$$$$$$$$$",
"$$$$$$$$$$$$$$$$$$$@o                  o@$$$$$$$$$$$$$$$$$$$",
"$$$$$$$$$$$$$$$$$$$$+o                o+$$$$$$$$$$$$$$$$$$$$",
"$$$$$$$$$$$$$$$$$$$$$Oo              oO$$$$$$$$$$$$$$$$$$$$$",
"$$$$$$$$$$$$$$$$$$$$$$Oo            oO$$$$$$$$$$$$$$$$$$$$$$",
"$$$$$$$$$$$$$$$$$$$$$$$+o          o+$$$$$$$$$$$$$$$$$$$$$$$",
"$$$$$$$$$$$$$$$$$$$$$$$$@X        X@$$$$$$$$$$$$$$$$$$$$$$$$",
"$$$$$$$$$$$$$$$$$$$$$$$$$@X      X@$$$$$$$$$$$$$$$$$$$$$$$$$",
"$$$$$$$$$$$$$$$$$$$$$$$$$$@X    X@$$$$$$$$$$$$$$$$$$$$$$$$$$",
"$$$$$$$$$$$$$$$$$$$$$$$$$$$#.  .#$$$$$$$$$$$$$$$$$$$$$$$$$$$",
"$$$$$$$$$$$$$$$$$$$$$$$$$$$$$  $$$$$$$$$$$$$$$$$$$$$$$$$$$$$",
"$$$$$$$$$$$$$$$$$$$$$$$$$$$$$  $$$$$$$$$$$$$$$$$$$$$$$$$$$$$",
"$$$$$$$$$$$$$$$$$$$$$$$$$$$#.  .#$$$$$$$$$$$$$$$$$$$$$$$$$$$",
"$$$$$$$$$$$$$$$$$$$$$$$$$$@X    X@$$$$$$$$$$$$$$$$$$$$$$$$$$",
"$$$$$$$$$$$$$$$$$$$$$$$$$@X      X@$$$$$$$$$$$$$$$$$$$$$$$$$",
"$$$$$$$$$$$$$$$$$$$$$$$$@X        X@$$$$$$$$$$$$$$$$$$$$$$$$",
"$$$$$$$$$$$$$$$$$$$$$$$+o          o+$$$$$$$$$$$$$$$$$$$$$$$",
"$$$$$$$$$$$$$$$$$$$$$$Oo            oO$$$$$$$$$$$$$$$$$$$$$$",
"$$$$$$$$$$$$$$$$$$$$$Oo              oO$$$$$$$$$$$$$$$$$$$$$",
"$$$$$$$$$$$$$$$$$$$$+o                o+$$$$$$$$$$$$$$$$$$$$",
"$$$$$$$$$$$$$$$$$$$@o                  o@$$$$$$$$$$$$$$$$$$$",
"$$$$$$$$$$$$$$$$$$@X                    X@$$$$$$$$$$$$$$$$$$",
"$$$$$$$$$$$$$$$$$@X                      X@$$$$$$$$$$$$$$$$$",
"$$$$$$$$$$$$$$$$#X                        X#$$$$$$$$$$$$$$$$",
"$$$$$$$$$$$$$$$$.                          .$$$$$$$$$$$$$$$$",
"$$$$$$$$$$$$$$$                              $$$$$$$$$$$$$$$",
"$$$$$$$$$$$$$$                                $$$$$$$$$$$$$$",
"$$$$$$$$$$$$#.                                .#$$$$$$$$$$$$",
"$$$$$$$$$$$@X                                  X@$$$$$$$$$$$",
"$$$$$$$$$$@X                                    X@$$$$$$$$$$",
"$$$$$$$$$@X                                      X@$$$$$$$$$",
"$$$$$$$$+o                                        o+$$$$$$$$",
"$$$$$$$Oo                                          oO$$$$$$$",
"$$$$$$Oo                                            oO$$$$$$",
"$$$$$+o                                              o+$$$$$",
"$$$$@o                                                o@$$$$",
"$$$@X                                                  X@$$$",
"$$@X                                                    X@$$",
"$#X                                                      X#$",
"$.                                                        .$",
"                                                            "
};
