/* XPM */
static char *result[] = {
/* columns rows colors chars-per-pixel */
"60 60 9 1 ",
"  c #D1A9BF",
". c #D2A9BF",
"X c #D3AABF",
"o c #D4AABF",
"O c #DAADC0",
"+ c #DAADC1",
"@ c #DBADC1",
"# c #DBAEC1",
"$ c #DCAEC1",
/* pixels */
"                              $$$$$$$$$$$$$$$$$$$$$$$$$$$$$ ",
"                            .$$$$$$$$$$$$$$$$$$$$$$$$$$$$#. ",
"                           X#$$$$$$$$$$$$$$$$$$$$$$$$$$$@X  ",
"                          X@$$$$$$$$$$$$$$$$$$$$$$$$$$$+X   ",
"                         X+$$$$$$$$$$$$$$$$$$$$$$$$$$$+X    ",
"                        o+$$$$$$$$$$$$$$$$$$$$$$$$$$$Oo     ",
"                       oO$$$$$$$$$$$$$$$$$$$$$$$$$$$Oo      ",
"                      oO$$$$$$$$$$$$$$$$$$$$$$$$$$$Oo       ",
"                     oO$$$$$$$$$$$$$$$$$$$$$$$$$$$Oo        ",
"                    oO$$$$$$$$$$$$$$$$$$$$$$$$$$$+o         ",
"                   X+$$$$$$$$$$$$$$$$$$$$$$$$$$$+X          ",
"                  X+$$$$$$$$$$$$$$$$$$$$$$$$$$$@X           ",
"                 X@$$$$$$$$$$$$$$$$$$$$$$$$$$$#X            ",
"                .#$$$$$$$$$$$$$$$$$$$$$$$$$$$$.             ",
"                $$$$$$$$$$$$$$$$$$$$$$$$$$$$$               ",
"               $$$$$$$$$$$$$$$$$$$$$$$$$$$$$                ",
"             .$$$$$$$$$$$$$$$$$$$$$$$$$$$$#.                ",
"            X#$$$$$$$$$$$$$$$$$$$$$$$$$$$@X                 ",
"           X@$$$$$$$$$$$$$$$$$$$$$$$$$$$+X                  ",
"          X+$$$$$$$$$$$$$$$$$$$$$$$$$$$+X                   ",
"         o+$$$$$$$$$$$$$$$$$$$$$$$$$$$Oo                    ",
"        oO$$$$$$$$$$$$$$$$$$$$$$$$$$$Oo                     ",
"       oO$$$$$$$$$$$$$$$$$$$$$$$$$$$Oo                      ",
"      oO$$$$$$$$$$$$$$$$$$$$$$$$$$$Oo                       ",
"     oO$$$$$$$$$$$$$$$$$$$$$$$$$$$+o                        ",
"    X+$$$$$$$$$$$$$$$$$$$$$$$$$$$+X                         ",
"   X+$$$$$$$$$$$$$$$$$$$$$$$$$$$@X                          ",
"  X@$$$$$$$$$$$$$$$$$$$$$$$$$$$#X                           ",
" .#$$$$$$$$$$$$$$$$$$$$$$$$$$$$.                            ",
" $$$$$$$$$$$$$$$$$$$$$$$$$$$$$                              ",
"$$$$$$$$$$$$$$$$$$$$$$$$$$$$$                               ",
"$$$$$$$$$$$$$$$$$$$$$$$$$$$#.                             .$",
"$$$$$$$$$$$$$$$$$$$$$$$$$$@X                             X#$",
"$$$$$$$$$$$$$$$$$$$$$$$$$+X                             X@$$",
"$$$$$$$$$$$$$$$$$$$$$$$$+X                             X+$$$",
"$$$$$$$$$$$$$$$$$$$$$$$Oo                             o+$$$$",
"$$$$$$$$$$$$$$$$$$$$$$Oo                             oO$$$$$",
"$$$$$$$$$$$$$$$$$$$$$Oo                             oO$$$$$$",
"$$$$$$$$$$$$$$$$$$$$Oo                             oO$$$$$$$",
"$$$$$$$$$$$$$$$$$$$+o                             oO$$$$$$$$",
"$$$$$$$$$$$$$$$$$$+X                             X+$$$$$$$$$",
"$$$$$$$$$$$$$$$$$@X                             X+$$$$$$$$$$",
"$$$$$$$$$$$$$$$$#X                             X@$$$$$$$$$$$",
"$$$$$$$$$$$$$$$$.                             .#$$$$$$$$$$$$",
"$$$$$$$$$$$$$$$                               $$$$$$$$$$$$$$",
"$$$$$$$$$$$$$$                               $$$$$$$$$$$$$$$",
"$$$$$$$$$$$$#.                             .$$$$$$$$$$$$$$$$",
"$$$$$$$$$$$@X                             X#$$$$$$$$$$$$$$$$",
"$$$$$$$$$$+X                             X@$$$$$$$$$$$$$$$$$",
"$$$$$$$$$+X                             X+$$$$$$$$$$$$$$$$$$",
"$$$$$$$$Oo                             o+$$$$$$$$$$$$$$$$$$$",
"$$$$$$$Oo                             oO$$$$$$$$$$$$$$$$$$$$",
"$$$$$$Oo                             oO$$$$$$$$$$$$$$$$$$$$$",
"$$$$$Oo                             oO$$$$$$$$$$$$$$$$$$$$$$",
"$$$$+o                             oO$$$$$$$$$$$$$$$$$$$$$$$",
"$$$+X                             X+$$$$$$$$$$$$$$$$$$$$$$$$",
"$$@X                             X+$$$$$$$$$$$$$$$$$$$$$$$$$",
"$#X                             X@$$$$$$$$$$$$$$$$$$$$$$$$$$",
"$.                             .#$$$$$$$$$$$$$$$$$$$$$$$$$$$",
"                               $$$$$$$$$$$$$$$$$$$$$$$$$$$$$"
};
